<svg width="14" height="16" viewBox="0 0 14 16" fill="none" xmlns="http://www.w3.org/2000/svg">
<path d="M3.75594 0C4.00642 0 4.23577 0.140401 4.34968 0.363479L6.35363 4.28783C6.60111 4.77247 7.29362 4.77247 7.5411 4.28783L9.54505 0.363479C9.65897 0.140401 9.88831 0 10.1388 0H12.6305C13.1414 0 13.4624 0.551201 13.2103 0.995626L9.46156 7.6035C9.34532 7.8084 9.34585 8.05943 9.46295 8.26384L13.323 15.0019C13.5776 15.4464 13.2567 16 12.7445 16H10.2234C9.97416 16 9.74574 15.861 9.63124 15.6396L7.54064 11.5976C7.29189 11.1167 6.60388 11.1172 6.35587 11.5985L4.27413 15.6387C4.15981 15.8606 3.93111 16 3.68151 16H1.15157C0.639064 16 0.318228 15.4458 0.573433 15.0014L4.44187 8.26444C4.55942 8.05972 4.55995 7.80811 4.44325 7.60291L0.686134 0.996227C0.433393 0.551796 0.754377 0 1.26565 0H3.75594Z" fill="#FCFBFB"/>
</svg>
